<?xml version="1.0" encoding="UTF-8"?>
<svg id="Layer_1" xmlns="http://www.w3.org/2000/svg" xmlns:xlink="http://www.w3.org/1999/xlink" version="1.1" viewBox="0 0 135 40">
  <!-- Generator: Adobe Illustrator 30.2.1, SVG Export Plug-In . SVG Version: 2.1.1 Build 1)  -->
  <defs>
    <style>
      .st0 {
        fill: none;
      }

      .st1 {
        fill: #fff;
      }

      .st2 {
        clip-path: url(#clippath);
      }
    </style>
    <clipPath id="clippath">
      <rect class="st0" width="135" height="40"/>
    </clipPath>
  </defs>
  <g class="st2">
    <g>
      <path class="st1" d="M67.5,38.4L80,1.4c.2-.5.6-.8,1.2-.8h3.3c.5,0,.9.5.7,1l-12.5,37c-.2.5-.6.8-1.2.8h-3.3c-.5,0-.9-.5-.7-1"/>
      <path class="st1" d="M7.5.7h5.6c.4,0,.8.3.8.8v37.2c0,.4-.3.8-.8.8h-5.7c-.4,0-.8-.3-.8-.8V15.2c0-.8-.7-1.5-1.5-1.5H.8c-.4,0-.8-.3-.8-.8v-4.2c0-.4.3-.8.8-.8h.7c3.8,0,5.3-1.5,5.3-5.4v-1.2c0-.4.3-.8.8-.8"/>
      <path class="st1" d="M29,40c-6.3,0-11.1-4.2-11.1-12.1v-15.9c0-7.9,4.7-12,11.1-12s10.7,3.7,10.7,10.6v.5c0,.4-.3.8-.8.8h-5.6c-.4,0-.8-.3-.8-.8h0c0-3.4-1.4-4.7-3.6-4.7s-4,1.6-4,5.9v6.7c1.5-2.2,3.6-3.1,6.1-3.1,4.8,0,9,3.8,9,11.1v1.5c0,7.5-4.8,11.6-11.1,11.6M25,28.3c0,3.8,1.6,5.2,4,5.2s4.1-1.5,4.1-5.2v-.9c0-3.9-1.6-5.2-4.1-5.2s-4,1.4-4,5.2v.9Z"/>
      <path class="st1" d="M43.6,27.4v-14.9c0-8.4,4.2-12.5,11.1-12.5s11.1,4.2,11.1,12.5v14.9c0,8.4-4.2,12.6-11.1,12.6s-11.1-4.2-11.1-12.6M58.7,27.6v-15.2c0-4.4-1.5-5.9-4-5.9s-4,1.5-4,5.9v15.2c0,4.4,1.5,5.9,4,5.9s4-1.5,4-5.9Z"/>
      <path class="st1" d="M97.9,40c-5.9,0-10.7-3.7-10.7-10.6v-.5c0-.4.3-.8.8-.8h5.6c.4,0,.7.3.7.8h0c0,3.5,1.4,4.7,3.6,4.7s4-1.6,4-5.9v-6.6c-1.5,2.2-3.6,3.1-6.1,3.1-4.8,0-9-3.7-9-11.1v-1.6c0-7.5,4.8-11.5,11.1-11.5s11.1,4.2,11.1,12v15.9c0,7.9-4.8,12.1-11.1,12.1M101.9,11.6c0-3.7-1.6-5.2-4-5.2s-4,1.5-4,5.2v.8c0,3.9,1.5,5.2,4,5.2s4-1.3,4-5.2v-.8Z"/>
      <path class="st1" d="M112.8,27.4v-14.9c0-8.4,4.2-12.5,11.1-12.5s11.1,4.2,11.1,12.5v14.9c0,8.4-4.2,12.6-11.1,12.6s-11.1-4.2-11.1-12.6ZM127.9,27.6v-15.2c0-4.4-1.5-5.9-4-5.9s-4,1.5-4,5.9v15.2c0,4.4,1.5,5.9,4,5.9s4-1.5,4-5.9Z"/>
    </g>
  </g>
</svg>