<?xml version="1.0" encoding="UTF-8"?>
<svg id="Layer_1" xmlns="http://www.w3.org/2000/svg" version="1.1" viewBox="0 0 136 32">
  <!-- Generator: Adobe Illustrator 30.2.1, SVG Export Plug-In . SVG Version: 2.1.1 Build 1)  -->
  <defs>
    <style>
      .st0 {
        fill: #fff;
        fill-rule: evenodd;
      }
    </style>
  </defs>
  <path class="st0" d="M5.7,15.6C2.8,23.8.5,30.6.5,30.6c0,0,.8.1,3.9,0h3.9l.3-1c.2-.6.5-1.6.8-2.3l.4-1.3h11.5l.3.9c.2.5.5,1.6.8,2.4l.5,1.5h7.8s-2.4-6.8-5.3-15L20.1.7h-9.1l-5.2,14.9h-.1ZM33.1,15.7v15h6.8V.7h-6.8s0,15,0,15ZM44.6,15.7v15h6.8V.7h-6.8s0,15,0,15ZM56.2,3.8v2.8h6.8V.9h-6.8v2.8h0ZM61.8,7.9c-.5.5-2,2-3.3,3.3l-2.4,2.4v17.2h6.8V7s-.5.4-1,.9h0ZM73.8,8.7c-3.3.6-5.5,2.2-6.4,4.6-.2.6-.3,1-.3,1.8,0,2.5.8,4.2,3.2,5.5.8.5,2.2,1,4.4,1.6,2.2.6,2.9.9,3.2,1.4q.2.3,0,.7c-.2.5-.7.8-1.6.9-1.9.2-3.4-.4-4.1-1.8-.2-.3-.3-.6-.4-.6,0,0-1.7.9-4.5,2.4-.7.4-1.2.7-1.2.8,0,.2.7,1.2,1.2,1.8,1.3,1.5,3,2.4,5.4,2.9.9.2,3.7.3,4.8.1,4.9-.6,7.7-3.4,7.4-7.3-.2-2.7-1.7-4.6-4.7-5.7-.4-.2-1.7-.5-2.8-.8-2.2-.6-2.9-.8-3.2-1.2-.4-.5,0-1.2.6-1.5.6-.2,1.8-.1,2.4.1s1.1.7,1.4,1.2l.3.4.6-.3c.3-.2,1.6-.8,2.8-1.5,1.2-.6,2.2-1.2,2.2-1.3,0-.2-1.1-1.5-1.7-2-1.2-1-2.6-1.7-4.3-2.2-1-.2-3.4-.3-4.5-.1h-.2ZM96.9,8.7c-3.6.5-6.7,2.5-8.5,5.5-1.8,2.9-2.1,6.8-.7,10,1.4,3.3,4.3,5.6,8,6.5.9.2,1.2.2,2.8.2s2.4,0,3.9-.5c4-1.2,7.1-4.8,7.8-8.8.7-4.3-1.1-8.4-4.7-10.9-1.2-.8-2.5-1.4-4.1-1.8-.8-.2-1.2-.2-2.5-.3h-2.1,0ZM15.2,9.7c-.2.5-1,3-1.8,5.4-.8,2.4-1.4,4.4-1.4,4.4h7.2l-1.8-5.4c-1-2.9-1.8-5.4-1.8-5.4,0,0-.2.4-.4.9h0ZM114.2,8.8v22h6.8v-6.3q0-6.9.6-8c.4-.7,1-1.2,1.7-1.5.8-.3,2.3-.3,3.1-.1,1.1.3,1.9,1.1,2.3,2.2.2.6.2.9.2,7.1v6.5h6.8v-7.3c0-7.1,0-7.4-.3-8.2-.7-2.8-2.1-4.6-4.5-5.7-1.2-.6-1.8-.7-3.7-.7s-2.5.1-3.9.8c-.7.3-1.1.6-1.6,1l-.7.6v-2.5h-6.8ZM97.5,15c-1.5.3-2.7,1.2-3.4,2.4-.4.8-.6,1.5-.6,2.5s.4,2.4,1.2,3.3c.9,1,2,1.5,3.5,1.6,1.6,0,2.8-.3,3.9-1.4,1-1,1.5-2.1,1.5-3.7s-.5-2.6-1.5-3.5c-.7-.7-1.6-1.1-2.6-1.3-.9-.2-1.4-.2-2.2,0h.2Z"/>
</svg>