<?xml version="1.0" encoding="UTF-8"?>
<svg id="Layer_1" xmlns="http://www.w3.org/2000/svg" version="1.1" viewBox="0 0 160.6 59.1">
  <!-- Generator: Adobe Illustrator 30.2.1, SVG Export Plug-In . SVG Version: 2.1.1 Build 1)  -->
  <defs>
    <style>
      .st0 {
        fill: #fff;
      }
    </style>
  </defs>
  <path class="st0" d="M36.9,26.8c2.2-1.7,4-4.3,4-8.1h0c0-3.4-1.3-6.2-3.7-8-2.4-1.9-5.8-2.9-9.8-2.9H8.6v40.2h19.2c4.4,0,8.2-.9,10.9-2.8s4.3-4.9,4.3-8.6h0c0-5-2.4-8-6.1-9.8ZM30.7,20.2c0,1.2-.4,1.8-1.2,2.3s-2.2.8-4,.8h-6.9v-6.3h7.4c1.7,0,2.9.3,3.6.9.7.5,1,1.1,1,2.2h0c0,.1.1.1.1.1ZM18.6,32.1h8.8c2.1,0,3.4.4,4.2.9.8.6,1.1,1.2,1.1,2.3h0c0,1.3-.4,1.9-1.2,2.5-.8.5-2.1.9-3.9.9h-9.1c.1,0,.1-6.6.1-6.6Z"/>
  <path class="st0" d="M70.3,26.8c2.2-1.7,4-4.3,4-8.1h0c0-3.4-1.3-6.2-3.7-8-2.4-1.9-5.8-2.9-9.8-2.9h-18.8v40.2h19.2c4.4,0,8.2-.9,11-2.8,2.7-1.9,4.3-4.9,4.3-8.6h0c0-5-2.5-8-6.2-9.8h0ZM64.1,20.2c0,1.2-.4,1.8-1.2,2.3s-2.2.8-4,.8h-6.9v-6.3h7.4c1.7,0,2.9.3,3.6.9.7.5,1,1.1,1,2.2h0c0,.1.1.1.1.1ZM66.2,35.4h0c0,1.3-.4,1.9-1.2,2.5-.8.5-2.1.9-3.9.9h-9.1v-6.6h8.8c2.1,0,3.4.4,4.2.9.9.6,1.2,1.2,1.2,2.3Z"/>
  <path class="st0" d="M106.7,13.5c-3.8-3.6-9.1-5.7-15.3-5.7h-16v40.2h15.9c6.2,0,11.6-2.2,15.3-5.8,3.8-3.6,6-8.7,6-14.3h0c0-5.8-2.2-10.8-5.9-14.4ZM102,27.9h0c0,6.5-4.2,10.6-10.7,10.6h-5.6v-21.3h5.6c6.5.1,10.6,4.3,10.7,10.7Z"/>
  <path class="st0" d="M147.4,13.2c-3.8-3.7-9.1-6-15.2-6s-11.5,2.3-15.3,6.1-6.1,9-6.1,14.7,2.2,10.9,6,14.6,9.1,6,15.2,6,11.5-2.3,15.3-6.1,6.1-9,6.1-14.7h0c0-5.7-2.2-10.9-6-14.6h0ZM121.4,27.8c0-6.1,4.3-11,10.6-11s10.7,5,10.7,11.1h0c0,6.2-4.3,11.1-10.6,11.1s-10.7-5-10.7-11.1h0Z"/>
</svg>