<?xml version="1.0" encoding="UTF-8"?>
<svg id="Layer_1" xmlns="http://www.w3.org/2000/svg" version="1.1" viewBox="0 0 1305 134">
  <!-- Generator: Adobe Illustrator 30.2.1, SVG Export Plug-In . SVG Version: 2.1.1 Build 1)  -->
  <defs>
    <style>
      .st0 {
        fill: #fff;
      }
    </style>
  </defs>
  <path class="st0" d="M134,90V0H46.7c41.3,14.8,73.8,48.2,87.3,90"/>
  <g>
    <path class="st0" d="M124.4,134H12.3c-6.8,0-12.3-5.5-12.3-12.3V8.2c28.6.2,54.9,10,75.9,26.4l-26.1,31.7-33.7.8,18.4,20.6-24.1,36.6,41.8-19,25,19v-32.6l30.3-20.9c10.7,18.4,16.8,39.8,16.8,62.6v.6h0ZM77.3,35.7v30.6l27.9.7c-7.5-11.9-17-22.5-27.9-31.3"/>
    <path class="st0" d="M483.9,82.1c0,18.2-15.3,31.4-36.5,31.4s-21.4-2.5-29.6-7.6c-2.3-1.4-4.5-3.1-6.6-4.9l13.8-18.9c10.8,10,21.9,9.6,25.7,9.1h.1c.3,0,.5,0,.7,0,.3,0,.5,0,.5,0,4.6-.9,7.3-3.7,7.3-7.8s-5.5-7-17.6-10h-.2l-1.3-.3c-.7-.2-1.3-.3-2-.5-1.7-.4-3.5-.9-5.2-1.4-12-3.6-23-10.1-23-26.2s14.7-29.5,35.1-29.5,17.4,1.8,24.5,5.8c1.3.8,2.6,1.6,3.9,2.5.9.6,1.7,1.3,2.5,2,0,0,1.5,1.2,1.6,1.3l-12.8,17.4c-.1,0-1.5-1.2-1.7-1.3-10.1-7.8-18.6-6.8-18.6-6.8-7.4,0-10.7,3.9-10.7,7.8s5.1,5.9,13.1,7.8c.7.2,1.5.3,2.3.5,1,.3,2.1.5,3.3.8,1,.2,2,.5,3,.7h.2c14.6,3.6,28,9.5,28,28.2"/>
    <path class="st0" d="M176.2,113.3h23.6v-35.5h35.5v-21.9h-35.5v-15.7h42.4v-22.3h-66v95.4h0Z"/>
    <path class="st0" d="M265.2,113.3h23.9V17.9h-23.9v95.4Z"/>
    <path class="st0" d="M492.4,39.8h25.6v73.5h23.1V39.8h25.3v-21.9h-74v21.9h0Z"/>
    <path class="st0" d="M662.2,53.7h-29.7V17.9h-23.7v95.4h23.7v-36.3h29.7v36.3h23.7V17.9h-23.7v35.8Z"/>
    <path class="st0" d="M755.7,16.6c-26.9,0-48.7,22-48.7,49s5,25.5,14.2,34.7c9.2,9.2,21.4,14.3,34.6,14.3,27.4,0,48.9-21.5,48.9-49s-21.9-49-48.9-49M780.8,65.6c0,14.4-11,25.6-25.1,25.6s-24.9-11.3-24.9-25.6,10.9-25.8,24.9-25.8,25.1,11.3,25.1,25.8"/>
    <path class="st0" d="M926.3,113.3h23.9V17.9h-23.9v95.4Z"/>
    <path class="st0" d="M1044.2,38.8v-20.9h-67.8v21.8h39.6l-40.8,56.1h0v17.5h69.6v-22.1h-38.7l38.2-52.5h0Z"/>
    <path class="st0" d="M1108.9,16.6c-26.9,0-48.7,22-48.7,49s5,25.5,14.2,34.7c9.2,9.2,21.4,14.3,34.6,14.3,27.4,0,48.9-21.5,48.9-49s-21.9-49-48.9-49M1134,65.6c0,14.4-11,25.6-25.1,25.6s-24.9-11.3-24.9-25.6,10.9-25.8,24.9-25.8,25.1,11.3,25.1,25.8"/>
    <path class="st0" d="M1237.7,17.9v55.2l-34.5-54.9-.2-.3h-24.4v95.4h22.7v-57.9l36,57.6.2.3h22.7V17.9h-22.6.1Z"/>
    <path class="st0" d="M373.9,70.3c7.4-2.9,16.9-10.6,16.9-24.1s-13.9-28.3-39.5-28.3h-35.7v95.3h25.9v-34.3h9.4l18.4,34.3h28.9l-24.2-42.9h0ZM346.8,60.9h-5.3v-23.7h5.3c8.4,0,16.7,2,16.7,10.9s-8.3,12.8-16.7,12.8"/>
    <path class="st0" d="M883.9,70.3c7.4-2.9,16.9-10.6,16.9-24.1s-13.9-28.3-39.5-28.3h-35.7v95.3h25.9v-34.3h9.4l18.4,34.3h28.9l-24.2-42.9h-.1ZM856.8,60.9h-5.3v-23.7h5.3c8.4,0,16.7,2,16.7,10.9s-8.3,12.8-16.7,12.8"/>
    <path class="st0" d="M1281,109.8c.5,1.5,1.8,2.3,3.5,2.3s3.1-.9,3.1-2.4-.6-1.8-2.2-2.2l-2.5-.7c-1.9-.5-3.3-1.5-3.3-3.5s1.9-3.9,4.5-3.9,4.5,1.5,5.1,3.6h-1.8c-.4-1.2-1.5-2.1-3.3-2.1s-2.9.9-2.9,2.3.8,1.7,2.2,2.1l2.4.6c2.2.6,3.4,1.8,3.4,3.7s-2,4-4.8,4-4.8-1.4-5.3-3.8h1.9Z"/>
    <path class="st0" d="M1297.8,113.4l-4.4-10.5v10.5h-1.7v-13.8h2l4.7,11.3,4.6-11.3h1.9v13.8h-1.7v-10.5l-4.3,10.5h-1.2,0Z"/>
  </g>
</svg>