<?xml version="1.0" encoding="UTF-8"?>
<svg id="Layer_1" xmlns="http://www.w3.org/2000/svg" version="1.1" viewBox="0 0 161 45">
  <!-- Generator: Adobe Illustrator 30.2.1, SVG Export Plug-In . SVG Version: 2.1.1 Build 1)  -->
  <defs>
    <style>
      .st0 {
        fill: #fff;
      }
    </style>
  </defs>
  <path class="st0" d="M156.1,37.9c0-.4.1-.8.3-1.2s.5-.7.9-.9.8-.3,1.2-.3.8,0,1.2.3.7.5.9.9.3.8.3,1.2-.1.8-.3,1.2-.5.7-.9.9-.8.3-1.3.3-.9,0-1.2-.3c-.4-.2-.7-.5-.9-.9s-.3-.8-.3-1.2h.1ZM156.4,37.9c0,.4,0,.7.3,1.1.2.3.4.6.8.8.3.2.7.3,1.1.3s.7,0,1.1-.3c.3-.2.6-.4.8-.8s.3-.7.3-1.1,0-.7-.3-1.1c-.2-.3-.4-.6-.8-.8-.3-.2-.7-.3-1.1-.3s-.7,0-1.1.3c-.3.2-.6.4-.8.8-.2.3-.3.7-.3,1.1h0ZM159.5,37.3c0,.2,0,.3-.1.5,0,0-.2.2-.4.3l.8,1.3h-.6l-.7-1.2h-.4v1.2h-.5v-2.9h.9c.4,0,.6,0,.8.2s.3.4.3.6h-.1ZM158.1,37.8h.4c.2,0,.3,0,.4,0,.1,0,.2-.2.2-.3s0-.3-.1-.4c0,0-.2,0-.4,0h-.3v.9h-.2Z"/>
  <g>
    <path class="st0" d="M22.1,6.5c0,3.6-2.1,6.5-4.7,6.5s-4.7-2.9-4.7-6.5S14.7,0,17.3,0s4.7,2.9,4.7,6.5h.1Z"/>
    <path class="st0" d="M34.9,10.9c1.1-3.4,0-6.8-2.6-7.6-2.5-.8-5.4,1.4-6.5,4.8s0,6.8,2.6,7.6c2.5.8,5.4-1.4,6.5-4.8Z"/>
    <path class="st0" d="M8.8,8.6c1.4,2.4,1.1,5.3-.7,6.4-1.9,1.1-4.5,0-6-2.4-1.4-2.4-1.1-5.3.7-6.4,1.9-1.1,4.5,0,6,2.4h0Z"/>
    <path class="st0" d="M36.6,15.4c-1.9,2-2.1,4.8-.5,6.2,1.5,1.4,4.3.9,6.2-1.1s2.1-4.8.5-6.2c-1.5-1.4-4.3-.9-6.2,1.1Z"/>
    <path class="st0" d="M38.2,27.9c0,1,0,2-.2,3-1.5,6.7-10.7,10.4-20.5,8.2C7.7,36.9,1,29.6,2.6,22.9c.2-.8.5-1.5.8-2.2,0,0,.8-1.3-.3-.2-1.6,1.4-2.4,3.1-2.8,5.1-1.7,7.4,5.6,15.4,16.3,17.9,10.8,2.4,20.6-1.6,22.3-9,.5-2.2.4-4.5-.5-6.5,0,0-.3-.6-.3,0h.1Z"/>
    <path class="st0" d="M32.5,34.6c1.8-1,2.9-2.6,3.3-4.3,1.2-5.2-4.8-10.9-13.3-12.8s-16.4.7-17.5,5.8c-.4,1.6,0,3.2.8,4.7,0,0,.6,1,.4-.1-.2-.7-.2-1.4,0-2.1.9-4.2,7.9-6.2,15.5-4.4,7.6,1.7,13,6.5,12,10.7-.2.9-.7,1.7-1.4,2.4,0,0-.4.7.3.3h0v-.2Z"/>
  </g>
  <path class="st0" d="M140.3,12.1c-3.9,0-7.2,1.4-10,4.1-2.7,2.7-4.1,6.1-4.1,10s1.4,7.2,4.1,10c2.7,2.7,6.1,4.1,10,4.1s7.2-1.4,9.9-4.1c2.7-2.7,4.1-6.1,4.1-10s-1.4-7.2-4.1-10c-2.7-2.7-6.1-4.1-9.9-4.1h0ZM146.8,32.7c-1.8,1.8-4,2.7-6.5,2.7s-4.7-.9-6.5-2.7-2.7-4-2.7-6.5.9-4.7,2.7-6.5,4-2.7,6.5-2.7,4.7.9,6.5,2.7c1.8,1.8,2.7,4,2.7,6.5s-.9,4.7-2.7,6.5h0Z"/>
  <path class="st0" d="M106,39.6c.5.5,1.1.7,1.7.7s1.2-.2,1.7-.7.7-1.1.7-1.7v-11.6c0-3.9-1.4-7.2-4.1-10-2.7-2.7-6.1-4.1-9.9-4.1s-7.2,1.4-10,4.1c-2.7,2.7-4.1,6.1-4.1,10s1.4,7.2,4.1,10c2.7,2.7,6.1,4.1,10,4.1h0c2,0,3.7-.3,5.1-.9,1.3-.5,2.5-1.2,3.6-2.1l.5-.4v.9c0,.7.2,1.3.7,1.7h0ZM105.3,26.6c0,2.3-1,4.4-2.7,6-.9.9-1.9,1.6-3,2-1.2.4-2.4.6-3.5.7-2.5,0-4.7-.9-6.5-2.7s-2.7-4-2.7-6.5.9-4.7,2.7-6.5c1.8-1.8,4-2.7,6.5-2.7s4.7.9,6.5,2.7c1.8,1.8,2.7,4,2.7,6.5v.5h0Z"/>
  <path class="st0" d="M119.3,4.7c-.5-.5-1.1-.7-1.7-.7s-1.2.2-1.7.7-.8,1.1-.8,1.7v21.8c0,2.9,0,6,1.1,8.2,1.3,2.5,3.8,3.8,7.8,3.8s2.5-1.1,2.5-2.5-1.1-2.5-2.5-2.5c-2.6,0-4-.3-4-7.4V6.4c0-.7-.2-1.2-.7-1.7h0Z"/>
  <path class="st0" d="M73.5,39.6c.5.5,1.1.7,1.7.7s1.2-.2,1.7-.7.7-1.1.7-1.7v-11.6c0-3.9-1.3-7.2-3.9-10-2.5-2.7-5.7-4.1-9.3-4.1s-5.5.9-7.8,2.7l-.5.4V6.4c0-.7-.2-1.2-.7-1.7s-1.1-.8-1.7-.8-1.3.3-1.8.8-.7,1-.7,1.7v31.4c0,.7.2,1.3.7,1.7.5.5,1,.7,1.7.7s1.3-.2,1.7-.7c.5-.5.7-1.1.7-1.7v-11.6c0-2.5.8-4.7,2.4-6.5,1.6-1.8,3.6-2.7,5.8-2.7s4.2.9,5.8,2.7c1.6,1.8,2.4,3.9,2.4,6.5v11.6c0,.7.2,1.3.7,1.7h.4Z"/>
</svg>