<?xml version="1.0" encoding="UTF-8"?>
<svg id="Layer_1" xmlns="http://www.w3.org/2000/svg" version="1.1" viewBox="0 0 342 127">
  <!-- Generator: Adobe Illustrator 30.2.1, SVG Export Plug-In . SVG Version: 2.1.1 Build 1)  -->
  <defs>
    <style>
      .st0 {
        fill: #fff;
      }
    </style>
  </defs>
  <path class="st0" d="M175.2,53.1v-6h-10.9v36.6h11.1v-20.2c1.9-4.2,5.1-6.4,9.6-6.4s2.6,0,3.9.4v-10.5c-1.1-.4-2.3-.5-3.5-.5-3.6,0-7,2.2-10.2,6.6"/>
  <path class="st0" d="M205.4,71.8c-3.1-3.6-3.1-9,0-12.6,3-3.3,8-3.5,11.3-.5.2.2.3.3.5.5,3.1,3.6,3.1,9,0,12.6-3,3.3-8,3.5-11.3.5-.2-.2-.3-.4-.5-.5M224.7,79c3.6-3.7,5.4-8.2,5.4-13.5.1-5-1.8-9.9-5.4-13.5-7.4-7.3-19.3-7.3-26.7,0-7.2,7.5-7.2,19.4,0,26.9,7.3,7.3,19.3,7.4,26.7,0"/>
  <path class="st0" d="M287.3,62c.4-1.8,1.4-3.5,2.8-4.7,1.3-1.1,2.9-1.7,4.5-1.7s3.3.7,4.5,1.9c1.3,1.2,2.1,2.7,2.4,4.4h-14.2,0ZM294.9,46.5c-4.9,0-9.7,1.9-13.1,5.4-3.6,3.6-5.4,8.1-5.4,13.6s1.7,10.2,5.1,13.7,7.9,5.3,13.4,5.3,6.9-.7,9.6-2.1c2.7-1.5,5.2-3.4,7.3-5.8l-8.1-4.5c-2,1.9-4.7,2.8-8.1,2.8s-7.6-2.1-8.4-6.4h25.2c0-.3,0-.6.1-.9,0-.4.1-.7.1-1v-.8c0-5.4-1.7-9.9-5-13.7s-7.5-5.6-12.7-5.6"/>
  <path class="st0" d="M338.5,46.5c-3.8,0-7.2,2.2-10.4,6.7v-6h-10.9v36.6h11.1v-20.3c1.9-4.2,5.1-6.4,9.6-6.4s2.6,0,3.9.4v-10.5c-1-.4-2.1-.6-3.3-.5"/>
  <path class="st0" d="M153.7,40.3c.2-1.3.3-2.5.3-3.8-.3-14.4,11.1-26.2,25.5-26.5,14.3-.4,26.2,11,26.5,25.4v1.1h10.5c0-20.2-16.4-36.5-36.5-36.5s-36.1,15.9-36.5,35.8c0,1-.1,2.1-.2,3.1-.5,3.7-1.9,9.1-5.8,13.5-3,3.5-7.2,5.8-12.4,7v-24.3h-11.7v48.7h11.7v-13.6c3.5-.6,6.8-1.6,10-3.1l10.6,16.7h14.1l-15.5-23.2c.4-.4.8-.8,1.2-1.2,5.5-6.5,7.5-14,8.2-19.1"/>
  <path class="st0" d="M258.9,71.1c-3.2,3.3-8.4,3.3-11.7,0h-.1c-3-3.7-3-8.9,0-12.5,3.2-3.3,8.4-3.3,11.7-.2l.2.2c2.9,3.6,2.9,8.9-.1,12.4M271.7,94.5v-47.3h-10.6v3.1c-2.5-2.5-5.9-3.9-9.5-3.8-4.7,0-8.8,1.8-12.2,5.3s-5.2,7.9-5.2,13.1,1.8,9.6,5.3,13c3.5,3.5,7.6,5.2,12.1,5.2s6.8-1,9.6-3v14.4c0,12.4-10,22.4-22.4,22.4s-22.4-10-22.4-22.4h-10.5c.2,18.1,15,32.7,33.2,32.5,17.5-.2,31.8-14,32.5-31.5v-1h.1,0Z"/>
  <path class="st0" d="M275.2,111.4h.4c.5,0,.9-.2.9-.6s-.3-.6-.8-.6h-.5v1.2ZM275.2,113.6h-.9v-3.8h1.5c.5,0,.9,0,1.3.3.2.2.4.5.4.8s-.4.8-.8.9h0c.4.3.7.6.7,1s.1.7.3,1h-1c-.1-.3-.2-.6-.3-.9-.1-.4-.3-.6-.8-.6h-.4v1.4h0ZM272.8,111.6c-.1,1.6,1.2,3,2.8,3h.1c1.6,0,2.9-1.3,2.9-2.9h0c0-1.7-1.3-3-2.9-3s-2.9,1.3-2.9,2.9ZM279.6,111.6c.1,2.2-1.6,4-3.8,4s-4-1.6-4-3.8c-.1-2.2,1.6-4,3.8-4h.1c2.1,0,3.9,1.6,3.9,3.8Z"/>
  <path class="st0" d="M36.4,78.3c0,3.4-2.9,6.2-6.3,6.1-3.4,0-6.2-2.9-6.1-6.3,0-3.4,2.8-6.1,6.2-6.1s6.2,2.8,6.2,6.3Z"/>
  <ellipse class="st0" cx="81.6" cy="78.3" rx="6.2" ry="6.3"/>
  <path class="st0" d="M29.8,37c0-.4.1-.8.3-1.1.3-.3.7-.5,1.1-.5h16.9c.5,0,1,.3,1.2.7.3.4.3,1,0,1.4l-8.7,15.2c-.4.7-1.2.9-1.9.6,0,0-.2,0-.2-.2-4.6-4-7.7-9.5-8.6-15.5,0,0-.1-.3,0-.6h0ZM57.1,59.1c-4.1.4-8.3-.3-12.1-1.9-.4-.2-.7-.5-.8-.9s0-.8,0-1.2l10.1-17.6c.4-.7,1.2-.9,1.9-.5.2,0,.4.3.5.5l9.7,17.1c.4.7.2,1.6-.5,1.9h0c-2.7,1.5-5.7,2.3-8.8,2.6ZM74.1,50c-.6.8-1.3,1.5-2,2.1-.3.3-.7.5-1.2.4-.4,0-.8-.3-1-.7l-8.2-14.3c-.3-.4-.3-1,0-1.4.2-.4.7-.7,1.2-.7h15.3c.4,0,.8.2,1.1.5s.4.7.3,1.1c-.4,4.8-2.4,9.3-5.5,13Z"/>
  <path class="st0" d="M84.8,35.4c-1,14.5-12.3,26.7-27.1,28-16.4,1.5-31-10.8-32.5-27.4C23.8,21,14.2,11.2,0,10.5v10.5c8.8.6,14.1,6.3,15,16,1.9,21.1,19.5,37,40,37s2.5,0,3.7-.2c20.1-1.9,35.4-18.6,36.4-38.4h-10.3Z"/>
</svg>