<?xml version="1.0" encoding="UTF-8"?>
<svg id="Layer_1" xmlns="http://www.w3.org/2000/svg" version="1.1" viewBox="0 0 32 32">
  <!-- Generator: Adobe Illustrator 30.2.1, SVG Export Plug-In . SVG Version: 2.1.1 Build 1)  -->
  <defs>
    <style>
      .st0 {
        fill: #fff;
      }
    </style>
  </defs>
  <path class="st0" d="M16,.5c-1.6,0-3.3.6-4.5,1.9-2.5,2.5-2.5,6.6,0,9.1.2.2.5.5.8.7,2.5,1.8,6.2,1.4,8.6-1-2.7,2.7-2.8,6.9-.3,9.3,0,0,0,0,0,0,2.5,2.5,6.6,2.5,9.1,0,1.3-1.3,1.9-2.9,1.9-4.5V.5h-15.5Z"/>
  <path class="st0" d="M20.5,20.5c-2.5-2.5-6.7-2.4-9.4.3,2.7-2.7,2.8-6.9.3-9.4-2.5-2.5-6.6-2.5-9.1,0-1.3,1.3-1.9,2.9-1.9,4.5v15.5s15.5,0,15.5,0c1.6,0,3.3-.6,4.5-1.9,2.5-2.5,2.5-6.6,0-9.1s0,0,0,0c0,0,0,0,0,0Z"/>
</svg>