<?xml version="1.0" encoding="UTF-8"?>
<svg id="Layer_1" xmlns="http://www.w3.org/2000/svg" xmlns:svg="http://www.w3.org/2000/svg" xmlns:sodipodi="http://sodipodi.sourceforge.net/DTD/sodipodi-0.dtd" xmlns:inkscape="http://www.inkscape.org/namespaces/inkscape" version="1.1" viewBox="0 0 566.9 162.9">
  <!-- Generator: Adobe Illustrator 30.2.1, SVG Export Plug-In . SVG Version: 2.1.1 Build 1)  -->
  <defs>
    <style>
      .st0 {
        fill: #fff;
      }
    </style>
  </defs>
  <sodipodi:namedview id="namedview94" bordercolor="#000000" borderopacity="0.25" inkscape:current-layer="Layer_1" inkscape:cx="237.77997" inkscape:cy="114.22516" inkscape:deskcolor="#d1d1d1" inkscape:pagecheckerboard="0" inkscape:pageopacity="0.0" inkscape:showpageshadow="2" inkscape:window-height="1373" inkscape:window-maximized="1" inkscape:window-width="2560" inkscape:window-x="-9" inkscape:window-y="-9" inkscape:zoom="1.9829256" pagecolor="#ffffff" showgrid="false"/>
  <g id="g67">
    <path id="path53" class="st0" d="M273.1,47.6l.6,8.1c2.5,4.2,9.6,7.1,14.4,7.1,7.8,0,14.4-4.1,14.4-12.1s-2.4-7-7.6-8.5l-12.9-3.8c-7.7-2.3-13.4-7.7-13.4-15.6,0-14.7,10.9-20.3,24.2-20.3s11.8,1,17.1,3.1l.5,1.1c-.9,2.9-1.3,8.3-1.3,13h-3.8l-.5-7.5c-2.8-3.1-7.9-5-12.2-5-8.5,0-12.6,5-12.6,11.1s2.9,7.2,9.7,8.9l10.5,2.8c8.5,2.2,13.9,7.5,13.9,15.8,0,15.6-12.9,22.1-26.9,22.1s-13.3-1.4-19.2-4.2c1.1-5.4,1.4-10.7,1.4-15.9h3.7v-.2Z"/>
    <path id="path55" class="st0" d="M323.7,36.9c0-5.2-.2-6.2-2.4-6.4l-4.1-.3v-3.3c6.3-.2,11.8-2.2,17.2-4l.5.5v6.9l7.4-5.7c2.3-1.7,5-1.7,7-1.7,5.3,0,9.9,2.3,11.7,7.4l7.3-5.7c2.3-1.7,5-1.7,7-1.7,9.7,0,12.8,4.9,12.8,17v17.1c0,2.2,0,3.4.4,4.3.3.9,1,1.4,2.9,1.6l3,.2v3.4c-3.3,0-6.1-.3-9-.3s-5.7.2-8.5.3v-25c0-4.5-.7-6.9-2.4-8.5s-3.6-2.1-5.8-2.1c-3.8,0-7.1,3.6-7.1,6.2v19.9c0,2.2,0,3.4.4,4.3s1,1.4,2.9,1.6l3.2.2v3.4c-4,0-7.8-.3-12.4-.3s-7.9.2-11.5.3v-3.4l2.8-.2c1.9,0,2.7-.6,2.9-1.6.3-.9.4-2.1.4-4.3v-15.5c0-4.5-.7-6.9-2.4-8.5s-3.6-2.1-5.8-2.1c-3.8,0-7.2,3.6-7.2,6.2v19.9c0,2.2,0,3.4.4,4.3s1,1.4,2.9,1.6l2.5.2v3.4c-3.2,0-7.1-.3-11.7-.3s-7.9.2-11.8.3v-3.4l3.2-.2c1.9-.2,2.7-.6,2.9-1.6.3-.9.4-2.1.4-4.3v-20.1h0Z"/>
    <path id="path57" class="st0" d="M397.1,36.9c0-5.2-.2-6.2-2.4-6.4l-4.1-.3v-3.3c3.5-.5,7-.8,10.4-1.9l6.4-2,.9.5v24c0,6,.4,12,7.4,12s6.1-2,7.7-4.7c.6-1,.8-2.4.8-3.6v-14.3c0-5.2-.2-6.2-2.4-6.4l-4.1-.3v-3.3c3.5-.5,7-.8,10.4-1.9l6.4-2,.9.5v33.5c0,2.2,0,3.4.4,4.3.3.9,1,1.4,2.9,1.6l3,.2v3.4c-3.8,0-7.6-.3-10.2-.3s-4.1.2-7.8.3l.5-7.6-7,6.8c-1.3,1.3-3.7,2.1-5.9,2.1-10.1,0-14.3-5.7-14.3-14.4v-16.4h.1Z"/>
    <path id="path59" class="st0" d="M451.2,36.8c0-5.2-.2-6.2-2.4-6.4l-4.1-.3v-3.3c3.5-.5,7-.8,10.4-1.9l6.4-2,.9.5v8.7l4-4.4c2.7-2.8,4.7-4.9,7.2-4.9s2.9,0,3.9.5l-.5,11.8-2.2.9c-1.1-2.2-3-3.3-5.4-3.3-3.6,0-7.2,3.3-7.2,5.9v18.2c0,2.2,0,3.4.4,4.3s2.1,1.5,4,1.6l3.6.2v3.4c-5.4,0-9.3-.3-13.9-.3s-7.9.2-11.8.3v-3.4l3.2-.2c1.9-.2,2.7-.6,2.9-1.6.3-.9.4-2.1.4-4.3v-20.1h.2Z"/>
    <path id="path61" class="st0" d="M512.1,9.4l-1.5.6c-1.7-1.1-3.9-2.2-5.8-2.2-5.7,0-5.8,3.7-5.8,8.5v9.9c4.1,0,8.3-.2,12-.4l.4.7-1,5.3h-11.4v25c0,2.2,0,3.4.4,4.3.3.9,2.3,1.5,4.2,1.6l4.1.2v3.4c-6.2,0-10-.3-14.6-.3s-7.9.2-12.9.3v-3.4l3.8-.2c1.9,0,3.2-.6,3.5-1.6.3-.9.4-2.1.4-4.3v-25l-7.2.5v-2.2c2.6-1.2,5-2.6,7.2-4.1v-4c0-7.2.5-8.7,5-12.6l6.8-5.7c4.3-3.4,6.3-3.7,8.6-3.7s2.5.2,3.8.5v8.9h0Z"/>
    <path id="path63" class="st0" d="M534.3,8.3c0,3.8-3.2,6.8-6.9,6.8s-6.9-3-6.9-6.8,3-7,6.9-7,6.9,2.9,6.9,7M522.2,36.8c0-5.2-.2-6.2-2.4-6.4l-4.1-.3v-3.3c3.5-.5,7-.8,10.4-1.9l6.4-2,.9.5v33.5c0,2.2,0,3.4.4,4.3.3.9,1,1.4,2.9,1.6l3.2.2v3.4c-4,0-7.8-.3-12.4-.3s-7.9.2-11.8.3v-3.4l3.2-.2c1.9-.2,2.7-.6,2.9-1.6.3-.9.4-2.1.4-4.3v-20.1h0Z"/>
    <path id="path65" class="st0" d="M545.1,31.8l-5.9.4v-2l6.1-4v-5.5c0-2.8-.2-5.6-.4-8.4,4-1.5,8.5-3.3,11.2-4.6l1.3.9c-.7,3.7-1.1,8.3-1.1,12.5v5.3l10.5-.5-.7,6h-9.7v21.8c0,4.7,1.6,6,5.7,6s2.9-.6,4.2-1.2l.7,1.7-4.5,5.4c-.6.8-2.7,1.7-5.6,1.7-8.4,0-11.8-3.4-11.8-11.7v-23.8h0Z"/>
  </g>
  <g id="g79">
    <path id="path69" class="st0" d="M275.4,89.4c0-3.8,0-6.3-.6-7.4-.4-.7-1.4-1.1-3.8-1.3l-3.4-.3v-3.7c3.8,0,8.8.3,14.3.3s10.5-.2,14.2-.3v3.7l-3.4.3c-2.4.2-3.4.6-3.8,1.3-.6,1.1-.6,3.6-.6,7.4v17c0,.4.4.6.8.6l17.3-16.9c2.2-2.2,5-5.4,7.2-7.7,1-1.1,1.5-2.2,1.5-3.3v-2.3c2.8,0,5.6.3,8.4.3s5.6-.2,8.4-.3v3.6c-3.9.4-7.3.6-10.1,3.1l-20.4,19,24.4,28.7c1.9,2.3,4.4,4.6,8.4,4.6v3.8c-3.1,0-6.1-.3-9.3-.3s-6.2.2-9.4.3l-19.1-22.9c-2.1-2.6-5.2-6.4-7-7.2-.7,0-1,.5-1,.8v16.6c0,3.9,0,6.3.6,7.4.4.7,1.4,1.1,3.8,1.3l3.4.3v3.7c-3.8,0-8.8-.3-14.2-.3s-10.6.2-14.3.3v-3.7l3.4-.3c2.4-.2,3.4-.6,3.8-1.3.5-1.1.6-3.6.6-7.4v-37.4h0Z"/>
    <path id="path71" class="st0" d="M359.2,117.9l-4.1,1.1c-4.9,1.4-8.5,2.4-8.5,8.4s2.2,5.5,5,5.5,6.5-2.4,7.6-4.1v-10.8h0ZM359.2,114c0-6.4-2.7-10.8-9.5-10.8s-4.8.5-5.1,1.3l-2,4.6-2.8-.6v-6.3l4.9-2.9c4-2.4,7.7-3.1,10.6-3.1,8.1,0,15.4,3.6,15.1,13.4,0,3.8-.3,7.5-.3,11.3s.2,7.6.3,11.4c0,2.3.6,3.6,2.5,3.8l2.8.3v3.4c-2.9,0-5.4-.3-8.1-.3s-5.1.2-8.4.3l-.5-.7.5-5.7-8.5,6.6c-1.4,1.1-3.4,1.1-5,1.1-6.8,0-10.2-4.7-10.2-11.2s1.1-7.6,4.2-9.7c3.4-2.3,7.5-3.4,11.5-4.2l8.1-1.6h0v-.4Z"/>
    <path id="path73" class="st0" d="M390.7,129.5c2.1,3.2,5.5,5.1,9.4,5.1,8.5,0,10.7-9.2,10.7-16.1s-3.2-14.2-11.5-14.2-7,1.7-8.6,4.6v20.6h0ZM379.5,110c0-5.2-.2-6.2-2.4-6.4l-4.1-.3v-3.3c3.5-.5,7-.8,10.4-1.9l6.4-2,.9.6v7.5l5.6-4.5c2.3-1.8,4.8-3.6,9.5-3.6,9.7,0,16.5,7.4,16.5,17.1s-.9,7.5-2.1,10.6c-1.6,4-4.4,7.2-6.7,9-2.2,1.7-4.6,3.7-7.2,5.3-3,1.9-5.3,2.9-7.5,2.9s-5.7-.8-8.2-1.6v14.2c0,2.2,0,3.4.4,4.3.3.9,1,1.5,2.9,1.6l4.1.2v3.4c-4.9,0-8.7-.3-13.3-.3s-7.9.2-11.9.3v-3.4l3.2-.2c1.9-.2,2.7-.6,2.9-1.6.3-.9.4-2.1.4-4.3v-43.5h.2Z"/>
    <path id="path75" class="st0" d="M440.3,129.5c2.1,3.2,5.5,5.1,9.4,5.1,8.5,0,10.7-9.2,10.7-16.1s-3.2-14.2-11.5-14.2-7,1.7-8.6,4.6v20.6h0ZM429.1,110c0-5.2-.2-6.2-2.4-6.4l-4.1-.3v-3.3c3.5-.5,7-.8,10.4-1.9l6.4-2,.9.6v7.5l5.6-4.5c2.3-1.8,4.8-3.6,9.5-3.6,9.7,0,16.5,7.4,16.5,17.1s-.9,7.5-2.1,10.6c-1.6,4-4.4,7.2-6.7,9-2.2,1.7-4.6,3.7-7.2,5.3-3,1.9-5.3,2.9-7.5,2.9s-5.7-.8-8.2-1.6v14.2c0,2.2,0,3.4.4,4.3.3.9,1,1.5,2.9,1.6l4.1.2v3.4c-4.9,0-8.7-.3-13.3-.3s-7.9.2-11.9.3v-3.4l3.2-.2c1.9-.2,2.7-.6,2.9-1.6.3-.9.4-2.1.4-4.3v-43.5h.2Z"/>
    <path id="path77" class="st0" d="M496.6,117.9l-4.1,1.1c-4.9,1.4-8.5,2.4-8.5,8.4s2.2,5.5,5,5.5,6.5-2.4,7.6-4.1v-10.8h0ZM496.6,114c0-6.4-2.7-10.8-9.5-10.8s-4.8.5-5.1,1.3l-2,4.6-2.8-.6v-6.3l4.9-2.9c4-2.4,7.7-3.1,10.7-3.1,8.1,0,15.4,3.6,15.2,13.4,0,3.8-.3,7.5-.3,11.3s.2,7.6.3,11.4c0,2.3.6,3.6,2.5,3.8l2.8.3v3.4c-2.9,0-5.4-.3-8.1-.3s-5.1.2-8.3.3l-.5-.7.5-5.7-8.5,6.6c-1.4,1.1-3.4,1.1-5,1.1-6.8,0-10.2-4.7-10.2-11.2s1.1-7.6,4.2-9.7c3.4-2.3,7.5-3.4,11.5-4.2l8.1-1.6h0l-.4-.4Z"/>
  </g>
  <g id="g91">
    <path id="path81" class="st0" d="M224.2,85c-1.3,18.2-8.5,48.9-41.4,49.1h-113.7c-32.9-.1-40-30.9-41.3-49.1-.3-3-.5-8.3-.5-13s.2-8.8.4-11.7c.8-17.3,6.5-52.6,40.3-52.9h116c33.8.4,39.6,35.6,40.3,53,.2,2.9.4,7.7.4,11.7s-.2,10-.5,13M251.6,59.4c-.7-18.9-5.9-57.5-36.8-57.8H37.2C6.3,1.9,1,40.4.4,59.4c-.3,3.1-.4,8.3-.4,12.7s.2,10.8.5,14.1c1.2,19.9,7.7,53.4,37.8,53.6h175.5c30-.2,36.5-33.7,37.8-53.6.3-3.3.5-9,.5-14.1s-.1-9.6-.4-12.7"/>
    <g id="g89">
      <polygon id="polygon83" class="st0" points="202.5 103.1 149.3 103.1 149.3 103.1 202.5 115.7 202.5 115.7 202.5 103.1"/>
      <path id="path85" class="st0" d="M202.6,22.8c0-.3-.2-.5-.5-.5h0L42.2,38.9h0c-.2,0-.4.2-.4.5s0,.3.3.4h0l71.6,14.7c6.6,1.1,11.4,5.1,11.1,9.6-.2,3.4-3.3,6.2-7.7,7.5-.2,0-.4,0-.5,0h-.4l-1.9.3-72.1,12.7h0c-.3,0-.5.2-.5.5s.2.5.5.5,0,0,0,0h0l159.9-16.6h0c.2,0,.4-.3.4-.5s-.2-.4-.4-.4h0l-70.6-14.5c-4.3-1-6.8-2.1-8.2-2.9-2.6-1.8-4.1-4.2-4-6.9.2-4.1,4.7-7.3,10.5-8.1l72.3-12.7h0c.2,0,.4-.2.4-.5"/>
      <path id="path87" class="st0" d="M42.2,89.5h0ZM202.2,118.1h0l-72-16.9h0c-4.5-1.2-7.6-4.1-7.4-7.4.2-3.2,3.5-5.7,8-6.4l71.4-14.2h0c.2,0,.3-.2.3-.5s-.2-.5-.5-.5h0l-159.8,17.3h0c-.2,0-.4.2-.4.5s0,.3.2.4l160.1,28.7h0c.3,0,.5-.2.5-.5s-.1-.4-.4-.5"/>
    </g>
  </g>
</svg>