<?xml version="1.0" encoding="UTF-8"?>
<svg id="Layer_1" xmlns="http://www.w3.org/2000/svg" version="1.1" viewBox="0 0 149 40">
  <!-- Generator: Adobe Illustrator 30.2.1, SVG Export Plug-In . SVG Version: 2.1.1 Build 1)  -->
  <defs>
    <style>
      .st0 {
        fill: #fff;
      }
    </style>
  </defs>
  <path class="st0" d="M137,35.4h9.3v4.1h-9.3v-4.1ZM46.2,4.3h1.4v10.4h-1.7v4.1h8.7v-4.1h-1.6V4.3h1.4v3.7h3.1V.4h-14.4v7.7h3v-3.8h0ZM66,18.8h-8.1v-4.1h1.4V4.3h-1.4V.4h8.1c4.8,0,7.1,1.4,7.1,5,0,2-1.2,3.9-3.1,4.4,2.5.5,2.7,1.5,2.7,3.9v1h.9l3-10.4h-1.3V.4h10.4v3.9h-1.3l2.6,10.4h1c-.6-1.5-.9-3.2-.9-4.9-.2-5.9,2.7-9.8,6.5-9.8s2.7.5,3.6,1.5V.4h3v7.1h-3.2c0-2.3-.7-3.4-2-3.4s-2.2,1.7-2.2,5.4.6,5.1,2.2,5.1,1.9-.9,2.1-2.7h3.5c0,4.7-2.4,7.2-6.6,7.2s-4.9-1.4-6-3.7v3.4h-7.7v-4h1.6l-.4-1.6h-4.2l-.4,1.6h1.5v4h-11.1v-4.5c0-2.1-.5-2.9-2.5-2.9h-.5v3.3h1.5v4.1h.2ZM78.5,9.5h2.4l-.8-3.5c0-.3-.2-.9-.3-1.7,0,.6-.2,1.1-.4,1.7,0,0-.9,3.5-.9,3.5ZM64.5,7.9h.6c1.8,0,2.6-.5,2.6-1.8s-.9-1.8-2.8-1.8h-.4s0,3.6,0,3.6ZM50.2,27.5l-1.7-.7c-.7-.3-1.1-.5-1.1-1.1s.5-1.1,1.4-1.1c1.4,0,2.5,1,2.6,2.4h0c0,.1,2.2.1,2.2.1v-5.8h-2.5v.8c-.7-.8-1.8-1.3-2.9-1.2-3.1,0-5.3,2.5-5.3,6.4-.3,2.7,1.5,5.1,4.1,5.8l1.5.5c.8.3,1.2.7,1.2,1.4s-.6,1.4-1.7,1.4-2.4-1-2.9-3.1h-2.2v6.4h2.4v-1.2c.9,1.1,2.3,1.7,3.7,1.6,3.2,0,5.4-2.5,5.4-6.5s-1.3-4.7-4.3-6h0ZM147.5,27.2c0,3.9-2.3,6.5-5.7,6.5s-5.7-2.5-5.7-6.5,2.3-6.4,5.7-6.4,5.7,2.6,5.7,6.5h0ZM142.9,27.6c0-2.5-.2-3.7-1.2-3.7s-1.2,1-1.2,3.1.2,3.5,1.2,3.5,1.2-.9,1.2-2.9h0ZM62.8,25.3h1.1v8.7c0,1.2-.6,2-1.7,2s-1.7-.7-1.7-2.1v-8.7h1.1v-4h-7.3v4h1.1v8.5c0,4.2,2.1,6.2,6.3,6.2s5.6-2,5.6-6v-8.7h1.1v-4h-5.7v4h.1ZM104.9,32.3h3.7v7.2h-12.6v-4h1.2v-10.4h-1.1c0,.6.2,1.2.2,1.9,0,3.9-2.1,6-6.1,6h-1.4v2.5h1.4v4h-7.8v-4h1.3v-10.4h-1.1c0,.6.2,1.2.2,1.9,0,3.9-2.1,6-6.1,6h-1.3v2.5h1.4v4h-7.8v-4h1.3v-10.4h-1.3v-3.9h8.3c2.7,0,4.4,1.1,5.2,3.1v-3.1h8.3c2.8,0,4.5,1.2,5.3,3.3v-3.3h7.5v3.9h-1.2v10.4h2.6v-3.2h0ZM78,27c0-1.2-.7-1.9-2.2-1.9h-.4v4h.3c1.1.1,2.1-.6,2.2-1.7v-.5h0ZM91.4,27c0-1.2-.7-1.9-2.2-1.9h-.4v4h.3c1.1.2,2.1-.6,2.2-1.6v-.5h0ZM115.4,25.1h1.1l-1.8,3.5-1.9-3.5h1.1v-3.8h-7.7v3.9h1l4,6.9v3.5h-1.8v4h8.5v-4.1h-1.7v-3.5l3.7-6.9h1v-3.8h-5.6v3.8h.1ZM130.7,35.5c-1.5,0-2.1-1.6-2.1-5.1s.5-5.4,2.1-5.4,1.9,1.1,1.9,3.3h3.1v-7.1h-2.8v1.2c-.8-1-2.1-1.6-3.4-1.6-3.6,0-6.4,3.9-6.4,9.9s2.6,9.3,6.8,9.3,6.2-2.6,6.2-7.3h-3.3c-.3,1.8-1,2.7-2.1,2.7h0ZM131.7,4.3h-1.4V.4h8c4.8,0,7.1,1.4,7.1,5,.1,2-1.2,3.9-3.1,4.4,2.5.5,2.7,1.5,2.7,3.9v1h1.2v4h-6.4v-4.5c0-2.1-.4-2.9-2.5-2.9h-.5v3.3h1.5v4.1h-8v-4.1h1.4V4.3ZM136.8,7.8h.6c1.8,0,2.6-.5,2.6-1.8s-.9-1.8-2.8-1.8h-.4v3.6h0ZM122.6,19.1c-2.3,0-4.4-.9-5.9-2.6-1.5-1.9-2.3-4.3-2.2-6.7v-1.7h-2.6v-3.7h-1.4v10.4h1.6v4.1h-8.7v-4.1h1.7V4.3h-1.4v3.7h-3.1V.4h14.4v5.3c1-3.4,4.1-5.7,7.6-5.7,5.1,0,8.3,3.7,8.3,9.7s-.7,4.8-2.2,6.7c-1.5,1.8-3.7,2.9-6.1,2.7h0ZM124.9,9.5c0-3.9-.4-5.7-2.2-5.7s-2.2,1.8-2.2,5.7.4,5.7,2.2,5.7,2.2-1.8,2.2-5.7h0ZM146.9,1.7l.4.7h-.6l-.3-.6v.6h-.5V.7h.7c.5,0,.7.2.7.5s-.2.4-.4.5h0ZM146.6,1.3c0-.1,0-.2-.3-.2h0v.4h.1q.2,0,.2-.2ZM148,1.7c0,.4-.2.8-.5,1.1-.6.6-1.6.6-2.2,0h0c-.3-.3-.5-.7-.5-1.1s.2-.8.5-1.1C145.9,0,146.9,0,147.6.6c.3.3.4.7.4,1.1h0ZM147.7,1.7c0-.7-.6-1.2-1.2-1.2s-.7.1-.9.4c-.2.2-.4.6-.4.9s.1.7.4.9c.2.2.6.4.9.4.7,0,1.2-.6,1.2-1.2h0v-.2Z"/>
  <path class="st0" d="M1,1.6l11.2,36.7,22.5-7.7L42.2,1.6H1ZM15.5,8.2h-2.2v-1.7h-.7v12.6l.8.5v2.5h-4.8v-2.5l.8-.5V6.5h-.7v1.7h-2.2V3h9v5.1h0ZM24.2,12h-2.5v-.8c0-2.2-2.3-2.1-2.1-.5.1.7,1.7,3.2,3,5.8,3.6,7.2-1.6,11.7-4.5,8.5l-.5.7h-1.6v-5.8h2.6v1.5c-.1,2.1,4.4,2.5.7-4.3-1-1.6-1.8-3.3-2.5-5-1.3-3.8,1.4-5.5,3.1-5.5s1.4.2,1.9.7l.5-.6h1.8v5.4h.1ZM34.2,25.2c0,3.3-2.2,5-3.9,5-2.6,0-4.9-1.4-4.7-11,.3-11.1,6.1-8.7,6.2-8l.5-.6h1.8v5.3h-2.5v-1c-.2-2.5-3-2.5-2.9,4.5,0,5.4.2,7.5,1.8,7.5s1-1.4,1-1.4v-2.1h2.6v1.8h0Z"/>
</svg>