<?xml version="1.0" encoding="UTF-8"?>
<svg id="Layer_1" xmlns="http://www.w3.org/2000/svg" version="1.1" viewBox="0 0 128 46">
  <!-- Generator: Adobe Illustrator 30.2.1, SVG Export Plug-In . SVG Version: 2.1.1 Build 1)  -->
  <defs>
    <style>
      .st0 {
        fill: #fff;
        fill-rule: evenodd;
      }
    </style>
  </defs>
  <path class="st0" d="M119.2,19.5c2.5,0,4.6.7,6.3,2.1,1.6,1.4,2.5,3.7,2.5,6.3v17.1c0,.1,0,.2,0,.4,0,.1-.1.2-.2.3,0,0-.2.2-.3.2-.1,0-.2,0-.4,0h-9.9c-.2,0-.5,0-.7-.3-.2-.2-.3-.4-.3-.7v-15.3c0-.6-.1-1.1-.3-1.6-.2-.5-.6-1-1-1.4-.3-.3-.7-.5-1.1-.6-.4-.1-.8,0-1.3,0-1,.3-2.1,1.3-3.1,3.2-1.8,3.1-2.8,6.6-2.7,10.1v5.6c0,.2,0,.5-.3.7-.2.2-.4.3-.7.3h-22.2c-2.8,0-5.4-.1-7.1-1.5-1.6-1.4-2.5-3.6-2.5-6.6v-4.6c0-1.4.5-2.6,1.1-3.9l2.7-6c0-.1,0-.3,0-.4,0-.1,0-.3-.2-.4,0,0-.2-.1-.3-.2s-.2,0-.3,0h-3.3c-.8,0-3.2.2-3.2,2.4v20.2c0,.2,0,.3,0,.5,0,.1-.2.3-.3.4-.2,0-.3.1-.5.1h-10.3c-.5,0-1-.1-1.5-.4-.4-.2-.8-.6-1.1-1-.3-.4-.4-.9-.5-1.4,0-.5,0-1,.3-1.5,2.4-5.3,5.8-12.5,7.5-16.4.4-.8.7-1.5.9-1.9,0-.1,0-.2,0-.3,0-.1,0-.2-.1-.3,0,0-.1-.2-.2-.2,0,0-.2,0-.3,0h-.9c-.6,0-1.2.2-1.7.5-.5.3-.9.8-1.2,1.4-2.6,5.5-10,21.1-10,21.1-.1.2-.3.4-.4.5-.2.1-.4.2-.6.2-.2,0-.4,0-.6-.2-.2-.1-.3-.3-.4-.5,0,0-.3-.7-.8-1.7-2.5-5.1-9.7-20.2-11.7-24.4,0,0,0-.1-.1-.1,0,0-.1,0-.2,0s-.1,0-.2,0c0,0,0,0-.1.1-1.1,2.3-5.9,12.9-9.1,19.8-1.7,3.6-2.9,6.2-2.9,6.2-.1.2-.3.4-.5.5s-.4.2-.7.2c-.2,0-.5,0-.7-.2-.2-.1-.4-.3-.5-.5L.6,5.4C-.1,4-.2,2.6.4,1.6,1,.6,2.2,0,3.8,0h4.5c1.7,0,4.2,0,5.2,0,.1,0,.2,0,.3,0,.1,0,.2.2.2.3.3.5,1,1.9,2.8,5.1.9,1.7,2,3.7,3.2,5.8,3.2,5.9,6.9,12.6,8,14.7,0,0,0,0,.1.1,0,0,0,0,.2,0,0,0,.1,0,.2,0s0,0,.1,0c1.6-2,6.3-9,4.1-13.9l-3.1-6.6c-.7-1.4-.7-2.8,0-3.8.6-1,1.9-1.6,3.4-1.6h4.5c1.2,0,3,0,4.3,0,.5,0,.9,0,1.2,0,.1,0,.3,0,.4.1.1,0,.2.2.2.3.1.2,2.3,4.7,4.8,10,3,6.3,6.5,13.6,7.4,15.5,0,0,0,0,.1.1,0,0,0,0,.2,0,0,0,.1,0,.2,0,0,0,0,0,.1,0,.4-.5.8-1,1.2-1.6.9-1.3,1.6-2.6,2.2-4.1v-.2c.1-.2.3-.3.4-.4.2-.1.4-.2.6-.2h17.4c.5,0,.9-.1,1.3-.4s.7-.6.9-1l4.9-10.6c.1-.2.3-.4.5-.5.2,0,.5-.1.7,0,.2,0,.4.2.5.3.1.2.2.3.2.5v11.1c0,.2,0,.4.2.5.1.1.3.2.5.2h4.8c.7,0,1.3-.3,1.7-.7.5-.5.7-1.1.7-1.7v-5.8c0-1.1.4-2.2,1.2-3,.8-.8,1.9-1.3,3-1.3h5.8c.4,0,.8.2,1.1.5.3.3.5.7.5,1.2v16.9c0,0,0,.2.1.2,0,0,.1.1.2.1,0,0,.2,0,.2,0,0,0,.2,0,.2-.1,3.8-4,7.8-6.2,11.8-6.2ZM91.3,42.6h1.1c.7,0,1.4-.3,1.9-.8.5-.5.8-1.2.8-1.9v-14.4c0-1.6-1.3-3.2-2.8-3.2h-4.5c-.2,0-.3,0-.5.2-.1.1-.2.3-.2.5v15.3c0,.6.1,1.1.3,1.6.2.5.5,1,.9,1.4.4.4.9.7,1.4.9.5.2,1.1.3,1.6.3ZM58.4,6.3l-.6-.4c-.1,0-.2-.2-.3-.3,0-.1,0-.3,0-.4.2-.9.6-1.8,1.2-2.6.6-.8,1.3-1.4,2.2-1.8.9-.4,1.8-.7,2.7-.8,1,0,1.9.1,2.8.5s1.7.9,2.4,1.6c.7.7,1.2,1.5,1.5,2.4.3.9.4,1.9.3,2.8,0,1-.4,1.9-.9,2.7-.5,1-1.4,1.8-1.8,2.3,0,0,0,0,0,0-.6.6-1.4,1.4-2.6,2.4-.4.4-.9.7-1.3,1.1-.1,0-.3.1-.4.1h-2c0,0-.1,0-.2,0,0,0,0,0-.1,0s0,0,0-.1c0,0,0-.1,0-.2.1-.4.3-1.1.3-1.6,0-.4.1-.7.1-1.1,0-1.3-.2-2.6-.8-3.8-.6-1.2-1.5-2.2-2.6-2.9Z"/>
</svg>