<?xml version="1.0" encoding="UTF-8"?>
<svg id="Layer_1" xmlns="http://www.w3.org/2000/svg" xmlns:xlink="http://www.w3.org/1999/xlink" version="1.1" viewBox="0 0 96 41">
  <!-- Generator: Adobe Illustrator 30.2.1, SVG Export Plug-In . SVG Version: 2.1.1 Build 1)  -->
  <defs>
    <style>
      .st0 {
        fill: none;
      }

      .st1 {
        fill: #fff;
      }

      .st2 {
        clip-path: url(#clippath);
      }
    </style>
    <clipPath id="clippath">
      <rect class="st0" width="96" height="41"/>
    </clipPath>
  </defs>
  <g class="st2">
    <g>
      <path class="st1" d="M25.9,8.2l-12.6,32.8h-8l4-9.4L0,8.2h8l5,14.3h0l4.8-14.3h8,0ZM52.4,32.8h-7.5v-2.7h0c-1.3,2.4-4.4,3.5-7.3,3.5-8,0-12.6-6.1-12.6-13.2s5.9-13.1,12.6-13.1,6.4,1.9,7.3,3.5h0v-2.6h7.5v24.6h0ZM38.6,26.8c4.7,0,6.3-3.9,6.3-6.3s-2.1-6.2-6.3-6.2-6.2,3.5-6.2,6.3,1.7,6.2,6.2,6.2h0ZM56.6,0h7.5v10.5h0c1.3-2.2,3.8-3.1,6.5-3.1s5.2.8,6.8,2.7c2.1,2.4,2.4,4.6,2.4,9v13.7h-7.5v-13.4c0-1.2,0-5.1-4-5.1s-4.2,3.7-4.2,4.9v13.7h-7.5V0h0Z"/>
      <path class="st1" d="M89.6,33c3.5,0,6.4-2.8,6.4-6.3s-2.9-6.3-6.4-6.3-6.4,2.8-6.4,6.3,2.9,6.3,6.4,6.3Z"/>
    </g>
  </g>
</svg>