<svg xmlns="http://www.w3.org/2000/svg" fill="none" viewBox="0 0 24 24" id="Business-Scale-2--Streamline-Cyber" height="24" width="24">
  <desc>
    Business Scale 2 Streamline Icon: https://streamlinehq.com
  </desc>
  <path fill="#ffffff" d="M15.5 20.5h-2v-2l-2 -1 -2 1v2h-2l-0.5 3h9l-0.5 -3Z" stroke-width="1"></path>
  <path fill="#ffffff" d="m4.5 17 -4 -2.5h8l-4 2.5Z" stroke-width="1"></path>
  <path fill="#ffffff" d="m18.5 13 -4 -2.5h8l-4 2.5Z" stroke-width="1"></path>
  <path fill="#ffffff" d="M11.5 5.5 10 4 11.5 0.5 13 4l-1.5 1.5Z" stroke-width="1"></path>
  <path fill="#e6ffbb" d="M7.3 22 7 23.5h9l-0.2 -1.5H7.3Z" stroke-width="1"></path>
  <path stroke="#55850d" stroke-linecap="round" stroke-linejoin="round" stroke-miterlimit="10" d="m3 9 17 -5" stroke-width="1"></path>
  <path stroke="#55850d" stroke-linecap="round" stroke-linejoin="round" stroke-miterlimit="10" d="M11.5 5.5v12" stroke-width="1"></path>
  <path stroke="#55850d" stroke-linejoin="round" stroke-miterlimit="10" d="M4.5 8.59998V14.5" stroke-width="1"></path>
  <path stroke="#55850d" stroke-linejoin="round" stroke-miterlimit="10" d="M18.5 4.40002V10.5" stroke-width="1"></path>
  <path stroke="#55850d" stroke-linejoin="round" stroke-miterlimit="10" d="m4.5 17 -4 -2.5h8l-4 2.5Z" stroke-width="1"></path>
  <path stroke="#55850d" stroke-linejoin="round" stroke-miterlimit="10" d="m18.5 13 -4 -2.5h8l-4 2.5Z" stroke-width="1"></path>
  <path stroke="#55850d" stroke-linecap="round" stroke-linejoin="round" stroke-miterlimit="10" d="M15.5 20.5h-8l-0.5 3h9l-0.5 -3Z" stroke-width="1"></path>
  <path stroke="#55850d" stroke-linejoin="round" stroke-miterlimit="10" d="M9.5 20.5v-2l2 -1 2 1v2" stroke-width="1"></path>
  <path stroke="#55850d" stroke-linecap="round" stroke-linejoin="round" stroke-miterlimit="10" d="M11.5 5.5 10 4 11.5 0.5 13 4l-1.5 1.5Z" stroke-width="1"></path>
</svg>