<svg xmlns="http://www.w3.org/2000/svg" fill="none" viewBox="0 0 24 24" id="Spacecraft-2--Streamline-Cyber" height="24" width="24">
  <desc>
    Spacecraft 2 Streamline Icon: https://streamlinehq.com
  </desc>
  <path fill="#ffffff" d="m21.5 17.5 -6 -3.2V4.4l-4 -3.9 -4 3.9v9.9l-6 3.2 -1 3h22l-1 -3Z" stroke-width="1"></path>
  <path fill="#e6ffbb" d="M3.5 16.4V8l1 -1 1 1v7.4" stroke-width="1"></path>
  <path fill="#e6ffbb" d="M17.5 15.4V8l1 -1 1 1v8.4" stroke-width="1"></path>
  <path fill="#e6ffbb" d="m3.5 20.5 -1 2h4l-1 -2" stroke-width="1"></path>
  <path fill="#e6ffbb" d="m17.5 20.5 -1 2h4l-1 -2" stroke-width="1"></path>
  <path fill="#e6ffbb" d="M9.5 20.5h4l1.5 3H8l1.5 -3Z" stroke-width="1"></path>
  <path fill="#e6ffbb" d="M15.5 14.3V4.4l-4 -3.9v20h11l-1 -3 -6 -3.2Z" stroke-width="1"></path>
  <path stroke="#55850d" stroke-linecap="round" stroke-linejoin="round" stroke-miterlimit="10" d="m13.5 13.2002 8 4.3 1 3H0.5l1 -3 8 -4.3" stroke-width="1"></path>
  <path stroke="#55850d" stroke-linecap="round" stroke-linejoin="round" stroke-miterlimit="10" d="M13.5 20.5v-13l-2 -2 -2 2v13" stroke-width="1"></path>
  <path stroke="#55850d" stroke-linecap="round" stroke-linejoin="round" stroke-miterlimit="10" d="M15.5 14.3V4.4l-4 -3.9 -4 3.9v9.9" stroke-width="1"></path>
  <path stroke="#55850d" stroke-linecap="round" stroke-linejoin="round" stroke-miterlimit="10" d="M3.5 16.4V8l1 -1 1 1v7.4" stroke-width="1"></path>
  <path stroke="#55850d" stroke-linecap="round" stroke-linejoin="round" stroke-miterlimit="10" d="M17.5 15.4V8l1 -1 1 1v8.4" stroke-width="1"></path>
  <path stroke="#55850d" stroke-linecap="round" stroke-linejoin="round" stroke-miterlimit="10" d="M9.5 20.5h4l1.5 3H8l1.5 -3Z" stroke-width="1"></path>
  <path stroke="#55850d" stroke-linecap="round" stroke-linejoin="round" stroke-miterlimit="10" d="m3.5 20.5 -1 2h4l-1 -2" stroke-width="1"></path>
  <path stroke="#55850d" stroke-linecap="round" stroke-linejoin="round" stroke-miterlimit="10" d="m17.5 20.5 -1 2h4l-1 -2" stroke-width="1"></path>
  <path stroke="#55850d" stroke-linecap="round" stroke-linejoin="round" stroke-miterlimit="10" d="M11.5 18.5v5" stroke-width="1"></path>
  <path stroke="#55850d" stroke-linecap="round" stroke-linejoin="round" stroke-miterlimit="10" d="M11.5 8.5v1" stroke-width="1"></path>
</svg>