<svg xmlns="http://www.w3.org/2000/svg" fill="none" viewBox="0 0 24 24" id="Store--Streamline-Cyber" height="24" width="24">
  <desc>
    Store Streamline Icon: https://streamlinehq.com
  </desc>
  <path fill="#ffffff" d="M19.5 2.5h-16l-3 5h2v15h18v-15h2l-3 -5Z" stroke-width="1"></path>
  <path fill="#e6ffbb" d="M20.5 20.5h-18v2h18v-2Z" stroke-width="1"></path>
  <path fill="#e6ffbb" d="m13.5 13.5 -11 5h11v-5Z" stroke-width="1"></path>
  <path fill="#e6ffbb" d="M22.5 7.5V10L21 11.5 19.5 10l-2 1.5 -2 -1.5 -2 1.5 -2 -1.5 -2 1.5 -2 -1.5 -2 1.5 -2 -1.5L2 11.5 0.5 10V7.5h22Z" stroke-width="1"></path>
  <path stroke="#55850d" stroke-linecap="round" stroke-linejoin="round" d="M20.5 13.5v9h-18v-9" stroke-width="1"></path>
  <path stroke="#55850d" stroke-linecap="round" stroke-linejoin="round" d="M0.5 22.5h22" stroke-width="1"></path>
  <path stroke="#55850d" stroke-linecap="round" stroke-linejoin="round" d="M2.5 18.5h11" stroke-width="1"></path>
  <path stroke="#55850d" stroke-linecap="round" stroke-linejoin="round" d="M13.5 22.5v-9" stroke-width="1"></path>
  <path stroke="#55850d" stroke-linecap="round" stroke-linejoin="round" d="M15.5 18.5v-3" stroke-width="1"></path>
  <path stroke="#55850d" stroke-linecap="round" stroke-linejoin="round" d="m3.5 7.5 3 -5" stroke-width="1"></path>
  <path stroke="#55850d" stroke-linecap="round" stroke-linejoin="round" d="m7.5 7.5 2 -5" stroke-width="1"></path>
  <path stroke="#55850d" stroke-linecap="round" stroke-linejoin="round" d="M11.5 7.5v-5" stroke-width="1"></path>
  <path stroke="#55850d" stroke-linecap="round" stroke-linejoin="round" d="m11.5 10 -2 1.5 -2 -1.5 -2 1.5 -2 -1.5L2 11.5 0.5 10V7.5" stroke-width="1"></path>
  <path stroke="#55850d" stroke-linecap="round" stroke-linejoin="round" d="M3.5 10V7.5" stroke-width="1"></path>
  <path stroke="#55850d" stroke-linecap="round" stroke-linejoin="round" d="M11.5 10V7.5" stroke-width="1"></path>
  <path stroke="#55850d" stroke-linecap="round" stroke-linejoin="round" d="M7.5 10V7.5" stroke-width="1"></path>
  <path stroke="#55850d" stroke-linecap="round" stroke-linejoin="round" d="m19.5 7.5 -3 -5" stroke-width="1"></path>
  <path stroke="#55850d" stroke-linecap="round" stroke-linejoin="round" d="m15.5 7.5 -2 -5" stroke-width="1"></path>
  <path stroke="#55850d" stroke-linecap="round" stroke-linejoin="round" d="m11.5 10 2 1.5 2 -1.5 2 1.5 2 -1.5 1.5 1.5 1.5 -1.5V7.5" stroke-width="1"></path>
  <path stroke="#55850d" stroke-linecap="round" stroke-linejoin="round" d="M19.5 10V7.5" stroke-width="1"></path>
  <path stroke="#55850d" stroke-linecap="round" stroke-linejoin="round" d="M15.5 9.986V7.5" stroke-width="1"></path>
  <path stroke="#55850d" stroke-linecap="round" stroke-linejoin="round" d="M22.5 7.5H0.5l3 -5h16l3 5Z" stroke-width="1"></path>
</svg>